STARTFONT 2.1
FONT -FreeType-Mx437 IBM BIOS-Medium-R-Normal--8-80-72-72-P-67-ISO10646-1
SIZE 8 72 72
FONTBOUNDINGBOX 8 8 0 -1
STARTPROPERTIES 19
FOUNDRY "FreeType"
FAMILY_NAME "Mx437 IBM BIOS"
WEIGHT_NAME "Medium"
SLANT "R"
SETWIDTH_NAME "Normal"
ADD_STYLE_NAME ""
PIXEL_SIZE 8
POINT_SIZE 80
RESOLUTION_X 72
RESOLUTION_Y 72
SPACING "P"
AVERAGE_WIDTH 67
CHARSET_REGISTRY "ISO10646"
CHARSET_ENCODING "1"
FONT_ASCENT 7
FONT_DESCENT 1
COPYRIGHT "Outline (vector) version by VileR, 2020"
_OTF_FONTFILE "Mx437_IBM_BIOS.ttf"
_OTF_PSNAME "Mx437_IBM_BIOS"
ENDPROPERTIES
CHARS 294
STARTCHAR 0000
ENCODING 0
SWIDTH 1000 0
DWIDTH 8 0
BBX 0 0 0 -1
BITMAP
ENDCHAR
STARTCHAR 0001
ENCODING 1
SWIDTH 1000 0
DWIDTH 8 0
BBX 8 8 0 -1
BITMAP
7E
81
A5
81
BD
99
81
7E
ENDCHAR
STARTCHAR 0002
ENCODING 2
SWIDTH 1000 0
DWIDTH 8 0
BBX 8 8 0 -1
BITMAP
7E
FF
DB
FF
C3
E7
FF
7E
ENDCHAR
STARTCHAR 0003
ENCODING 3
SWIDTH 1000 0
DWIDTH 8 0
BBX 7 7 0 -1
BITMAP
6C
FE
FE
FE
7C
38
10
ENDCHAR
STARTCHAR 0004
ENCODING 4
SWIDTH 1000 0
DWIDTH 8 0
BBX 7 7 0 -1
BITMAP
10
38
7C
FE
7C
38
10
ENDCHAR
STARTCHAR 0005
ENCODING 5
SWIDTH 1000 0
DWIDTH 8 0
BBX 7 8 0 -1
BITMAP
38
7C
38
FE
FE
7C
38
7C
ENDCHAR
STARTCHAR 0006
ENCODING 6
SWIDTH 1000 0
DWIDTH 8 0
BBX 7 8 0 -1
BITMAP
10
10
38
7C
FE
7C
38
7C
ENDCHAR
STARTCHAR 0007
ENCODING 7
SWIDTH 1000 0
DWIDTH 8 0
BBX 4 4 2 1
BITMAP
60
F0
F0
60
ENDCHAR
STARTCHAR 0008
ENCODING 8
SWIDTH 1000 0
DWIDTH 8 0
BBX 8 8 0 -1
BITMAP
FF
FF
E7
C3
C3
E7
FF
FF
ENDCHAR
STARTCHAR 0009
ENCODING 9
SWIDTH 1000 0
DWIDTH 8 0
BBX 6 6 1 0
BITMAP
78
CC
84
84
CC
78
ENDCHAR
STARTCHAR 000A
ENCODING 10
SWIDTH 1000 0
DWIDTH 8 0
BBX 8 8 0 -1
BITMAP
FF
C3
99
BD
BD
99
C3
FF
ENDCHAR
STARTCHAR 000B
ENCODING 11
SWIDTH 1000 0
DWIDTH 8 0
BBX 8 8 0 -1
BITMAP
0F
07
0F
7D
CC
CC
CC
78
ENDCHAR
STARTCHAR 000C
ENCODING 12
SWIDTH 1000 0
DWIDTH 8 0
BBX 6 8 1 -1
BITMAP
78
CC
CC
CC
78
30
FC
30
ENDCHAR
STARTCHAR 000D
ENCODING 13
SWIDTH 1000 0
DWIDTH 8 0
BBX 8 8 0 -1
BITMAP
3F
33
3F
30
30
70
F0
E0
ENDCHAR
STARTCHAR 000E
ENCODING 14
SWIDTH 1000 0
DWIDTH 8 0
BBX 8 8 0 -1
BITMAP
7F
63
7F
63
63
67
E6
C0
ENDCHAR
STARTCHAR 000F
ENCODING 15
SWIDTH 1000 0
DWIDTH 8 0
BBX 8 8 0 -1
BITMAP
99
5A
3C
E7
E7
3C
5A
99
ENDCHAR
STARTCHAR 0010
ENCODING 16
SWIDTH 1000 0
DWIDTH 8 0
BBX 7 7 0 -1
BITMAP
80
E0
F8
FE
F8
E0
80
ENDCHAR
STARTCHAR 0011
ENCODING 17
SWIDTH 1000 0
DWIDTH 8 0
BBX 7 7 0 -1
BITMAP
02
0E
3E
FE
3E
0E
02
ENDCHAR
STARTCHAR 0012
ENCODING 18
SWIDTH 1000 0
DWIDTH 8 0
BBX 6 8 1 -1
BITMAP
30
78
FC
30
30
FC
78
30
ENDCHAR
STARTCHAR 0013
ENCODING 19
SWIDTH 1000 0
DWIDTH 8 0
BBX 6 7 1 -1
BITMAP
CC
CC
CC
CC
CC
00
CC
ENDCHAR
STARTCHAR 0014
ENCODING 20
SWIDTH 1000 0
DWIDTH 8 0
BBX 8 7 0 -1
BITMAP
7F
DB
DB
7B
1B
1B
1B
ENDCHAR
STARTCHAR 0015
ENCODING 21
SWIDTH 1000 0
DWIDTH 8 0
BBX 8 8 0 -1
BITMAP
3E
63
38
6C
6C
38
CC
78
ENDCHAR
STARTCHAR 0016
ENCODING 22
SWIDTH 1000 0
DWIDTH 8 0
BBX 6 3 1 3
BITMAP
FC
FC
FC
ENDCHAR
STARTCHAR 0017
ENCODING 23
SWIDTH 1000 0
DWIDTH 8 0
BBX 8 8 0 -1
BITMAP
18
3C
7E
18
7E
3C
18
FF
ENDCHAR
STARTCHAR 0018
ENCODING 24
SWIDTH 1000 0
DWIDTH 8 0
BBX 6 7 1 -1
BITMAP
30
78
FC
30
30
30
30
ENDCHAR
STARTCHAR 0019
ENCODING 25
SWIDTH 1000 0
DWIDTH 8 0
BBX 6 7 1 -1
BITMAP
30
30
30
30
FC
78
30
ENDCHAR
STARTCHAR 001A
ENCODING 26
SWIDTH 1000 0
DWIDTH 8 0
BBX 7 5 0 0
BITMAP
18
0C
FE
0C
18
ENDCHAR
STARTCHAR 001B
ENCODING 27
SWIDTH 1000 0
DWIDTH 8 0
BBX 7 5 0 0
BITMAP
30
60
FE
60
30
ENDCHAR
STARTCHAR 001C
ENCODING 28
SWIDTH 1000 0
DWIDTH 8 0
BBX 7 4 0 1
BITMAP
C0
C0
C0
FE
ENDCHAR
STARTCHAR 001D
ENCODING 29
SWIDTH 1000 0
DWIDTH 8 0
BBX 8 5 0 0
BITMAP
24
66
FF
66
24
ENDCHAR
STARTCHAR 001E
ENCODING 30
SWIDTH 1000 0
DWIDTH 8 0
BBX 8 5 0 0
BITMAP
18
3C
7E
FF
FF
ENDCHAR
STARTCHAR 001F
ENCODING 31
SWIDTH 1000 0
DWIDTH 8 0
BBX 8 5 0 0
BITMAP
FF
FF
7E
3C
18
ENDCHAR
STARTCHAR 0020
ENCODING 32
SWIDTH 1000 0
DWIDTH 8 0
BBX 0 0 0 -1
BITMAP
ENDCHAR
STARTCHAR 0021
ENCODING 33
SWIDTH 1000 0
DWIDTH 8 0
BBX 4 7 1 -1
BITMAP
60
F0
F0
60
60
00
60
ENDCHAR
STARTCHAR 0022
ENCODING 34
SWIDTH 1000 0
DWIDTH 8 0
BBX 5 3 1 -1
BITMAP
D8
D8
D8
ENDCHAR
STARTCHAR 0023
ENCODING 35
SWIDTH 1000 0
DWIDTH 8 0
BBX 7 7 0 -1
BITMAP
6C
6C
FE
6C
FE
6C
6C
ENDCHAR
STARTCHAR 0024
ENCODING 36
SWIDTH 1000 0
DWIDTH 8 0
BBX 6 7 0 -1
BITMAP
30
7C
C0
78
0C
F8
30
ENDCHAR
STARTCHAR 0025
ENCODING 37
SWIDTH 1000 0
DWIDTH 8 0
BBX 7 6 0 0
BITMAP
C6
CC
18
30
66
C6
ENDCHAR
STARTCHAR 0026
ENCODING 38
SWIDTH 1000 0
DWIDTH 8 0
BBX 7 7 0 -1
BITMAP
38
6C
38
76
DC
CC
76
ENDCHAR
STARTCHAR 0027
ENCODING 39
SWIDTH 1000 0
DWIDTH 8 0
BBX 3 3 0 -1
BITMAP
60
60
C0
ENDCHAR
STARTCHAR 0028
ENCODING 40
SWIDTH 1000 0
DWIDTH 8 0
BBX 4 7 1 -1
BITMAP
30
60
C0
C0
C0
60
30
ENDCHAR
STARTCHAR 0029
ENCODING 41
SWIDTH 1000 0
DWIDTH 8 0
BBX 4 7 1 -1
BITMAP
C0
60
30
30
30
60
C0
ENDCHAR
STARTCHAR 002A
ENCODING 42
SWIDTH 1000 0
DWIDTH 8 0
BBX 8 5 0 0
BITMAP
66
3C
FF
3C
66
ENDCHAR
STARTCHAR 002B
ENCODING 43
SWIDTH 1000 0
DWIDTH 8 0
BBX 6 5 0 0
BITMAP
30
30
FC
30
30
ENDCHAR
STARTCHAR 002C
ENCODING 44
SWIDTH 1000 0
DWIDTH 8 0
BBX 3 3 1 4
BITMAP
60
60
C0
ENDCHAR
STARTCHAR 002D
ENCODING 45
SWIDTH 1000 0
DWIDTH 8 0
BBX 6 1 0 2
BITMAP
FC
ENDCHAR
STARTCHAR 002E
ENCODING 46
SWIDTH 1000 0
DWIDTH 8 0
BBX 2 2 2 4
BITMAP
C0
C0
ENDCHAR
STARTCHAR 002F
ENCODING 47
SWIDTH 1000 0
DWIDTH 8 0
BBX 7 7 0 -1
BITMAP
06
0C
18
30
60
C0
80
ENDCHAR
STARTCHAR 0030
ENCODING 48
SWIDTH 1000 0
DWIDTH 8 0
BBX 7 7 0 -1
BITMAP
7C
C6
CE
DE
F6
E6
7C
ENDCHAR
STARTCHAR 0031
ENCODING 49
SWIDTH 1000 0
DWIDTH 8 0
BBX 6 7 0 -1
BITMAP
30
70
30
30
30
30
FC
ENDCHAR
STARTCHAR 0032
ENCODING 50
SWIDTH 1000 0
DWIDTH 8 0
BBX 6 7 0 -1
BITMAP
78
CC
0C
38
60
CC
FC
ENDCHAR
STARTCHAR 0033
ENCODING 51
SWIDTH 1000 0
DWIDTH 8 0
BBX 6 7 0 -1
BITMAP
78
CC
0C
38
0C
CC
78
ENDCHAR
STARTCHAR 0034
ENCODING 52
SWIDTH 1000 0
DWIDTH 8 0
BBX 7 7 0 -1
BITMAP
1C
3C
6C
CC
FE
0C
1E
ENDCHAR
STARTCHAR 0035
ENCODING 53
SWIDTH 1000 0
DWIDTH 8 0
BBX 6 7 0 -1
BITMAP
FC
C0
F8
0C
0C
CC
78
ENDCHAR
STARTCHAR 0036
ENCODING 54
SWIDTH 1000 0
DWIDTH 8 0
BBX 6 7 0 -1
BITMAP
38
60
C0
F8
CC
CC
78
ENDCHAR
STARTCHAR 0037
ENCODING 55
SWIDTH 1000 0
DWIDTH 8 0
BBX 6 7 0 -1
BITMAP
FC
CC
0C
18
30
30
30
ENDCHAR
STARTCHAR 0038
ENCODING 56
SWIDTH 1000 0
DWIDTH 8 0
BBX 6 7 0 -1
BITMAP
78
CC
CC
78
CC
CC
78
ENDCHAR
STARTCHAR 0039
ENCODING 57
SWIDTH 1000 0
DWIDTH 8 0
BBX 6 7 0 -1
BITMAP
78
CC
CC
7C
0C
18
70
ENDCHAR
STARTCHAR 003A
ENCODING 58
SWIDTH 1000 0
DWIDTH 8 0
BBX 2 6 2 0
BITMAP
C0
C0
00
00
C0
C0
ENDCHAR
STARTCHAR 003B
ENCODING 59
SWIDTH 1000 0
DWIDTH 8 0
BBX 3 7 1 0
BITMAP
60
60
00
00
60
60
C0
ENDCHAR
STARTCHAR 003C
ENCODING 60
SWIDTH 1000 0
DWIDTH 8 0
BBX 5 7 0 -1
BITMAP
18
30
60
C0
60
30
18
ENDCHAR
STARTCHAR 003D
ENCODING 61
SWIDTH 1000 0
DWIDTH 8 0
BBX 6 4 0 1
BITMAP
FC
00
00
FC
ENDCHAR
STARTCHAR 003E
ENCODING 62
SWIDTH 1000 0
DWIDTH 8 0
BBX 5 7 1 -1
BITMAP
C0
60
30
18
30
60
C0
ENDCHAR
STARTCHAR 003F
ENCODING 63
SWIDTH 1000 0
DWIDTH 8 0
BBX 6 7 0 -1
BITMAP
78
CC
0C
18
30
00
30
ENDCHAR
STARTCHAR 0040
ENCODING 64
SWIDTH 1000 0
DWIDTH 8 0
BBX 7 7 0 -1
BITMAP
7C
C6
DE
DE
DE
C0
78
ENDCHAR
STARTCHAR 0041
ENCODING 65
SWIDTH 1000 0
DWIDTH 8 0
BBX 6 7 0 -1
BITMAP
30
78
CC
CC
FC
CC
CC
ENDCHAR
STARTCHAR 0042
ENCODING 66
SWIDTH 1000 0
DWIDTH 8 0
BBX 7 7 0 -1
BITMAP
FC
66
66
7C
66
66
FC
ENDCHAR
STARTCHAR 0043
ENCODING 67
SWIDTH 1000 0
DWIDTH 8 0
BBX 7 7 0 -1
BITMAP
3C
66
C0
C0
C0
66
3C
ENDCHAR
STARTCHAR 0044
ENCODING 68
SWIDTH 1000 0
DWIDTH 8 0
BBX 7 7 0 -1
BITMAP
F8
6C
66
66
66
6C
F8
ENDCHAR
STARTCHAR 0045
ENCODING 69
SWIDTH 1000 0
DWIDTH 8 0
BBX 7 7 0 -1
BITMAP
FE
62
68
78
68
62
FE
ENDCHAR
STARTCHAR 0046
ENCODING 70
SWIDTH 1000 0
DWIDTH 8 0
BBX 7 7 0 -1
BITMAP
FE
62
68
78
68
60
F0
ENDCHAR
STARTCHAR 0047
ENCODING 71
SWIDTH 1000 0
DWIDTH 8 0
BBX 7 7 0 -1
BITMAP
3C
66
C0
C0
CE
66
3E
ENDCHAR
STARTCHAR 0048
ENCODING 72
SWIDTH 1000 0
DWIDTH 8 0
BBX 6 7 0 -1
BITMAP
CC
CC
CC
FC
CC
CC
CC
ENDCHAR
STARTCHAR 0049
ENCODING 73
SWIDTH 1000 0
DWIDTH 8 0
BBX 4 7 1 -1
BITMAP
F0
60
60
60
60
60
F0
ENDCHAR
STARTCHAR 004A
ENCODING 74
SWIDTH 1000 0
DWIDTH 8 0
BBX 7 7 0 -1
BITMAP
1E
0C
0C
0C
CC
CC
78
ENDCHAR
STARTCHAR 004B
ENCODING 75
SWIDTH 1000 0
DWIDTH 8 0
BBX 7 7 0 -1
BITMAP
E6
66
6C
78
6C
66
E6
ENDCHAR
STARTCHAR 004C
ENCODING 76
SWIDTH 1000 0
DWIDTH 8 0
BBX 7 7 0 -1
BITMAP
F0
60
60
60
62
66
FE
ENDCHAR
STARTCHAR 004D
ENCODING 77
SWIDTH 1000 0
DWIDTH 8 0
BBX 7 7 0 -1
BITMAP
C6
EE
FE
FE
D6
C6
C6
ENDCHAR
STARTCHAR 004E
ENCODING 78
SWIDTH 1000 0
DWIDTH 8 0
BBX 7 7 0 -1
BITMAP
C6
E6
F6
DE
CE
C6
C6
ENDCHAR
STARTCHAR 004F
ENCODING 79
SWIDTH 1000 0
DWIDTH 8 0
BBX 7 7 0 -1
BITMAP
38
6C
C6
C6
C6
6C
38
ENDCHAR
STARTCHAR 0050
ENCODING 80
SWIDTH 1000 0
DWIDTH 8 0
BBX 7 7 0 -1
BITMAP
FC
66
66
7C
60
60
F0
ENDCHAR
STARTCHAR 0051
ENCODING 81
SWIDTH 1000 0
DWIDTH 8 0
BBX 6 7 0 -1
BITMAP
78
CC
CC
CC
DC
78
1C
ENDCHAR
STARTCHAR 0052
ENCODING 82
SWIDTH 1000 0
DWIDTH 8 0
BBX 7 7 0 -1
BITMAP
FC
66
66
7C
6C
66
E6
ENDCHAR
STARTCHAR 0053
ENCODING 83
SWIDTH 1000 0
DWIDTH 8 0
BBX 6 7 0 -1
BITMAP
78
CC
E0
70
1C
CC
78
ENDCHAR
STARTCHAR 0054
ENCODING 84
SWIDTH 1000 0
DWIDTH 8 0
BBX 6 7 0 -1
BITMAP
FC
B4
30
30
30
30
78
ENDCHAR
STARTCHAR 0055
ENCODING 85
SWIDTH 1000 0
DWIDTH 8 0
BBX 6 7 0 -1
BITMAP
CC
CC
CC
CC
CC
CC
FC
ENDCHAR
STARTCHAR 0056
ENCODING 86
SWIDTH 1000 0
DWIDTH 8 0
BBX 6 7 0 -1
BITMAP
CC
CC
CC
CC
CC
78
30
ENDCHAR
STARTCHAR 0057
ENCODING 87
SWIDTH 1000 0
DWIDTH 8 0
BBX 7 7 0 -1
BITMAP
C6
C6
C6
D6
FE
EE
C6
ENDCHAR
STARTCHAR 0058
ENCODING 88
SWIDTH 1000 0
DWIDTH 8 0
BBX 7 7 0 -1
BITMAP
C6
C6
6C
38
38
6C
C6
ENDCHAR
STARTCHAR 0059
ENCODING 89
SWIDTH 1000 0
DWIDTH 8 0
BBX 6 7 0 -1
BITMAP
CC
CC
CC
78
30
30
78
ENDCHAR
STARTCHAR 005A
ENCODING 90
SWIDTH 1000 0
DWIDTH 8 0
BBX 7 7 0 -1
BITMAP
FE
C6
8C
18
32
66
FE
ENDCHAR
STARTCHAR 005B
ENCODING 91
SWIDTH 1000 0
DWIDTH 8 0
BBX 4 7 1 -1
BITMAP
F0
C0
C0
C0
C0
C0
F0
ENDCHAR
STARTCHAR 005C
ENCODING 92
SWIDTH 1000 0
DWIDTH 8 0
BBX 7 7 0 -1
BITMAP
C0
60
30
18
0C
06
02
ENDCHAR
STARTCHAR 005D
ENCODING 93
SWIDTH 1000 0
DWIDTH 8 0
BBX 4 7 1 -1
BITMAP
F0
30
30
30
30
30
F0
ENDCHAR
STARTCHAR 005E
ENCODING 94
SWIDTH 1000 0
DWIDTH 8 0
BBX 7 4 0 -1
BITMAP
10
38
6C
C6
ENDCHAR
STARTCHAR 005F
ENCODING 95
SWIDTH 1000 0
DWIDTH 8 0
BBX 8 1 0 6
BITMAP
FF
ENDCHAR
STARTCHAR 0060
ENCODING 96
SWIDTH 1000 0
DWIDTH 8 0
BBX 3 3 2 -1
BITMAP
C0
C0
60
ENDCHAR
STARTCHAR 0061
ENCODING 97
SWIDTH 1000 0
DWIDTH 8 0
BBX 7 5 0 1
BITMAP
78
0C
7C
CC
76
ENDCHAR
STARTCHAR 0062
ENCODING 98
SWIDTH 1000 0
DWIDTH 8 0
BBX 7 7 0 -1
BITMAP
E0
60
60
7C
66
66
DC
ENDCHAR
STARTCHAR 0063
ENCODING 99
SWIDTH 1000 0
DWIDTH 8 0
BBX 6 5 0 1
BITMAP
78
CC
C0
CC
78
ENDCHAR
STARTCHAR 0064
ENCODING 100
SWIDTH 1000 0
DWIDTH 8 0
BBX 7 7 0 -1
BITMAP
1C
0C
0C
7C
CC
CC
76
ENDCHAR
STARTCHAR 0065
ENCODING 101
SWIDTH 1000 0
DWIDTH 8 0
BBX 6 5 0 1
BITMAP
78
CC
FC
C0
78
ENDCHAR
STARTCHAR 0066
ENCODING 102
SWIDTH 1000 0
DWIDTH 8 0
BBX 6 7 0 -1
BITMAP
38
6C
60
F0
60
60
F0
ENDCHAR
STARTCHAR 0067
ENCODING 103
SWIDTH 1000 0
DWIDTH 8 0
BBX 7 6 0 1
BITMAP
76
CC
CC
7C
0C
F8
ENDCHAR
STARTCHAR 0068
ENCODING 104
SWIDTH 1000 0
DWIDTH 8 0
BBX 7 7 0 -1
BITMAP
E0
60
6C
76
66
66
E6
ENDCHAR
STARTCHAR 0069
ENCODING 105
SWIDTH 1000 0
DWIDTH 8 0
BBX 4 7 1 -1
BITMAP
60
00
E0
60
60
60
F0
ENDCHAR
STARTCHAR 006A
ENCODING 106
SWIDTH 1000 0
DWIDTH 8 0
BBX 6 8 0 -1
BITMAP
0C
00
0C
0C
0C
CC
CC
78
ENDCHAR
STARTCHAR 006B
ENCODING 107
SWIDTH 1000 0
DWIDTH 8 0
BBX 7 7 0 -1
BITMAP
E0
60
66
6C
78
6C
E6
ENDCHAR
STARTCHAR 006C
ENCODING 108
SWIDTH 1000 0
DWIDTH 8 0
BBX 4 7 1 -1
BITMAP
E0
60
60
60
60
60
F0
ENDCHAR
STARTCHAR 006D
ENCODING 109
SWIDTH 1000 0
DWIDTH 8 0
BBX 7 5 0 1
BITMAP
CC
FE
FE
D6
C6
ENDCHAR
STARTCHAR 006E
ENCODING 110
SWIDTH 1000 0
DWIDTH 8 0
BBX 6 5 0 1
BITMAP
F8
CC
CC
CC
CC
ENDCHAR
STARTCHAR 006F
ENCODING 111
SWIDTH 1000 0
DWIDTH 8 0
BBX 6 5 0 1
BITMAP
78
CC
CC
CC
78
ENDCHAR
STARTCHAR 0070
ENCODING 112
SWIDTH 1000 0
DWIDTH 8 0
BBX 7 6 0 1
BITMAP
DC
66
66
7C
60
F0
ENDCHAR
STARTCHAR 0071
ENCODING 113
SWIDTH 1000 0
DWIDTH 8 0
BBX 7 6 0 1
BITMAP
76
CC
CC
7C
0C
1E
ENDCHAR
STARTCHAR 0072
ENCODING 114
SWIDTH 1000 0
DWIDTH 8 0
BBX 7 5 0 1
BITMAP
DC
76
66
60
F0
ENDCHAR
STARTCHAR 0073
ENCODING 115
SWIDTH 1000 0
DWIDTH 8 0
BBX 6 5 0 1
BITMAP
7C
C0
78
0C
F8
ENDCHAR
STARTCHAR 0074
ENCODING 116
SWIDTH 1000 0
DWIDTH 8 0
BBX 5 7 1 -1
BITMAP
20
60
F8
60
60
68
30
ENDCHAR
STARTCHAR 0075
ENCODING 117
SWIDTH 1000 0
DWIDTH 8 0
BBX 7 5 0 1
BITMAP
CC
CC
CC
CC
76
ENDCHAR
STARTCHAR 0076
ENCODING 118
SWIDTH 1000 0
DWIDTH 8 0
BBX 6 5 0 1
BITMAP
CC
CC
CC
78
30
ENDCHAR
STARTCHAR 0077
ENCODING 119
SWIDTH 1000 0
DWIDTH 8 0
BBX 7 5 0 1
BITMAP
C6
D6
FE
FE
6C
ENDCHAR
STARTCHAR 0078
ENCODING 120
SWIDTH 1000 0
DWIDTH 8 0
BBX 7 5 0 1
BITMAP
C6
6C
38
6C
C6
ENDCHAR
STARTCHAR 0079
ENCODING 121
SWIDTH 1000 0
DWIDTH 8 0
BBX 6 6 0 1
BITMAP
CC
CC
CC
7C
0C
F8
ENDCHAR
STARTCHAR 007A
ENCODING 122
SWIDTH 1000 0
DWIDTH 8 0
BBX 6 5 0 1
BITMAP
FC
98
30
64
FC
ENDCHAR
STARTCHAR 007B
ENCODING 123
SWIDTH 1000 0
DWIDTH 8 0
BBX 6 7 0 -1
BITMAP
1C
30
30
E0
30
30
1C
ENDCHAR
STARTCHAR 007C
ENCODING 124
SWIDTH 1000 0
DWIDTH 8 0
BBX 2 7 3 -1
BITMAP
C0
C0
C0
00
C0
C0
C0
ENDCHAR
STARTCHAR 007D
ENCODING 125
SWIDTH 1000 0
DWIDTH 8 0
BBX 6 7 0 -1
BITMAP
E0
30
30
1C
30
30
E0
ENDCHAR
STARTCHAR 007E
ENCODING 126
SWIDTH 1000 0
DWIDTH 8 0
BBX 7 2 0 -1
BITMAP
76
DC
ENDCHAR
STARTCHAR 007F
ENCODING 127
SWIDTH 1000 0
DWIDTH 8 0
BBX 7 6 0 0
BITMAP
10
38
6C
C6
C6
FE
ENDCHAR
STARTCHAR 00A0
ENCODING 160
SWIDTH 1000 0
DWIDTH 8 0
BBX 0 0 0 -1
BITMAP
ENDCHAR
STARTCHAR 00A1
ENCODING 161
SWIDTH 1000 0
DWIDTH 8 0
BBX 2 7 3 -1
BITMAP
C0
C0
00
C0
C0
C0
C0
ENDCHAR
STARTCHAR 00A2
ENCODING 162
SWIDTH 1000 0
DWIDTH 8 0
BBX 7 8 0 -1
BITMAP
18
18
7E
C0
C0
7E
18
18
ENDCHAR
STARTCHAR 00A3
ENCODING 163
SWIDTH 1000 0
DWIDTH 8 0
BBX 7 7 0 -1
BITMAP
38
6C
64
F0
60
E6
FC
ENDCHAR
STARTCHAR 00A5
ENCODING 165
SWIDTH 1000 0
DWIDTH 8 0
BBX 6 8 0 -1
BITMAP
CC
CC
78
FC
30
FC
30
30
ENDCHAR
STARTCHAR 00A7
ENCODING 167
SWIDTH 1000 0
DWIDTH 8 0
BBX 8 8 0 -1
BITMAP
3E
63
38
6C
6C
38
CC
78
ENDCHAR
STARTCHAR 00AA
ENCODING 170
SWIDTH 1000 0
DWIDTH 8 0
BBX 6 6 1 -1
BITMAP
78
D8
D8
7C
00
FC
ENDCHAR
STARTCHAR 00AB
ENCODING 171
SWIDTH 1000 0
DWIDTH 8 0
BBX 8 5 0 0
BITMAP
33
66
CC
66
33
ENDCHAR
STARTCHAR 00AC
ENCODING 172
SWIDTH 1000 0
DWIDTH 8 0
BBX 6 3 0 2
BITMAP
FC
0C
0C
ENDCHAR
STARTCHAR 00B0
ENCODING 176
SWIDTH 1000 0
DWIDTH 8 0
BBX 5 4 1 -1
BITMAP
70
D8
D8
70
ENDCHAR
STARTCHAR 00B1
ENCODING 177
SWIDTH 1000 0
DWIDTH 8 0
BBX 6 7 0 -1
BITMAP
30
30
FC
30
30
00
FC
ENDCHAR
STARTCHAR 00B2
ENCODING 178
SWIDTH 1000 0
DWIDTH 8 0
BBX 4 5 1 -1
BITMAP
E0
30
60
C0
F0
ENDCHAR
STARTCHAR 00B5
ENCODING 181
SWIDTH 1000 0
DWIDTH 8 0
BBX 7 7 0 0
BITMAP
66
66
66
66
7C
60
C0
ENDCHAR
STARTCHAR 00B6
ENCODING 182
SWIDTH 1000 0
DWIDTH 8 0
BBX 8 7 0 -1
BITMAP
7F
DB
DB
7B
1B
1B
1B
ENDCHAR
STARTCHAR 00B7
ENCODING 183
SWIDTH 1000 0
DWIDTH 8 0
BBX 2 1 3 3
BITMAP
C0
ENDCHAR
STARTCHAR 00BA
ENCODING 186
SWIDTH 1000 0
DWIDTH 8 0
BBX 5 6 1 -1
BITMAP
70
D8
D8
70
00
F8
ENDCHAR
STARTCHAR 00BB
ENCODING 187
SWIDTH 1000 0
DWIDTH 8 0
BBX 8 5 0 0
BITMAP
CC
66
33
66
CC
ENDCHAR
STARTCHAR 00BC
ENCODING 188
SWIDTH 1000 0
DWIDTH 8 0
BBX 8 8 0 -1
BITMAP
C3
C6
CC
DB
37
6F
CF
03
ENDCHAR
STARTCHAR 00BD
ENCODING 189
SWIDTH 1000 0
DWIDTH 8 0
BBX 8 8 0 -1
BITMAP
C3
C6
CC
DE
33
66
CC
0F
ENDCHAR
STARTCHAR 00BF
ENCODING 191
SWIDTH 1000 0
DWIDTH 8 0
BBX 6 7 0 -1
BITMAP
30
00
30
60
C0
CC
78
ENDCHAR
STARTCHAR 00C4
ENCODING 196
SWIDTH 1000 0
DWIDTH 8 0
BBX 7 7 0 -1
BITMAP
C6
38
6C
C6
FE
C6
C6
ENDCHAR
STARTCHAR 00C5
ENCODING 197
SWIDTH 1000 0
DWIDTH 8 0
BBX 6 7 0 -1
BITMAP
30
30
00
78
CC
FC
CC
ENDCHAR
STARTCHAR 00C6
ENCODING 198
SWIDTH 1000 0
DWIDTH 8 0
BBX 7 7 0 -1
BITMAP
3E
6C
CC
FE
CC
CC
CE
ENDCHAR
STARTCHAR 00C7
ENCODING 199
SWIDTH 1000 0
DWIDTH 8 0
BBX 6 8 0 -1
BITMAP
78
CC
C0
CC
78
18
0C
78
ENDCHAR
STARTCHAR 00C9
ENCODING 201
SWIDTH 1000 0
DWIDTH 8 0
BBX 6 7 0 -1
BITMAP
1C
00
FC
60
78
60
FC
ENDCHAR
STARTCHAR 00D1
ENCODING 209
SWIDTH 1000 0
DWIDTH 8 0
BBX 6 7 0 -1
BITMAP
FC
00
CC
EC
FC
DC
CC
ENDCHAR
STARTCHAR 00D6
ENCODING 214
SWIDTH 1000 0
DWIDTH 8 0
BBX 8 7 0 -1
BITMAP
C3
18
3C
66
66
3C
18
ENDCHAR
STARTCHAR 00DC
ENCODING 220
SWIDTH 1000 0
DWIDTH 8 0
BBX 6 7 0 -1
BITMAP
CC
00
CC
CC
CC
CC
78
ENDCHAR
STARTCHAR 00DF
ENCODING 223
SWIDTH 1000 0
DWIDTH 8 0
BBX 6 7 0 0
BITMAP
78
CC
F8
CC
F8
C0
C0
ENDCHAR
STARTCHAR 00E0
ENCODING 224
SWIDTH 1000 0
DWIDTH 8 0
BBX 7 7 0 -1
BITMAP
E0
00
78
0C
7C
CC
7E
ENDCHAR
STARTCHAR 00E1
ENCODING 225
SWIDTH 1000 0
DWIDTH 8 0
BBX 7 7 0 -1
BITMAP
1C
00
78
0C
7C
CC
7E
ENDCHAR
STARTCHAR 00E2
ENCODING 226
SWIDTH 1000 0
DWIDTH 8 0
BBX 8 7 0 -1
BITMAP
7E
C3
3C
06
3E
66
3F
ENDCHAR
STARTCHAR 00E4
ENCODING 228
SWIDTH 1000 0
DWIDTH 8 0
BBX 7 7 0 -1
BITMAP
CC
00
78
0C
7C
CC
7E
ENDCHAR
STARTCHAR 00E5
ENCODING 229
SWIDTH 1000 0
DWIDTH 8 0
BBX 7 7 0 -1
BITMAP
30
30
78
0C
7C
CC
7E
ENDCHAR
STARTCHAR 00E6
ENCODING 230
SWIDTH 1000 0
DWIDTH 8 0
BBX 8 5 0 1
BITMAP
7F
0C
7F
CC
7F
ENDCHAR
STARTCHAR 00E7
ENCODING 231
SWIDTH 1000 0
DWIDTH 8 0
BBX 6 6 0 1
BITMAP
78
C0
C0
78
0C
38
ENDCHAR
STARTCHAR 00E8
ENCODING 232
SWIDTH 1000 0
DWIDTH 8 0
BBX 6 7 0 -1
BITMAP
E0
00
78
CC
FC
C0
78
ENDCHAR
STARTCHAR 00E9
ENCODING 233
SWIDTH 1000 0
DWIDTH 8 0
BBX 6 7 0 -1
BITMAP
1C
00
78
CC
FC
C0
78
ENDCHAR
STARTCHAR 00EA
ENCODING 234
SWIDTH 1000 0
DWIDTH 8 0
BBX 8 7 0 -1
BITMAP
7E
C3
3C
66
7E
60
3C
ENDCHAR
STARTCHAR 00EB
ENCODING 235
SWIDTH 1000 0
DWIDTH 8 0
BBX 6 7 0 -1
BITMAP
CC
00
78
CC
FC
C0
78
ENDCHAR
STARTCHAR 00EC
ENCODING 236
SWIDTH 1000 0
DWIDTH 8 0
BBX 5 7 0 -1
BITMAP
E0
00
70
30
30
30
78
ENDCHAR
STARTCHAR 00ED
ENCODING 237
SWIDTH 1000 0
DWIDTH 8 0
BBX 4 7 1 -1
BITMAP
70
00
E0
60
60
60
F0
ENDCHAR
STARTCHAR 00EE
ENCODING 238
SWIDTH 1000 0
DWIDTH 8 0
BBX 7 7 0 -1
BITMAP
7C
C6
38
18
18
18
3C
ENDCHAR
STARTCHAR 00EF
ENCODING 239
SWIDTH 1000 0
DWIDTH 8 0
BBX 6 7 0 -1
BITMAP
CC
00
70
30
30
30
78
ENDCHAR
STARTCHAR 00F1
ENCODING 241
SWIDTH 1000 0
DWIDTH 8 0
BBX 6 6 0 0
BITMAP
F8
00
F8
CC
CC
CC
ENDCHAR
STARTCHAR 00F2
ENCODING 242
SWIDTH 1000 0
DWIDTH 8 0
BBX 6 6 0 0
BITMAP
E0
00
78
CC
CC
78
ENDCHAR
STARTCHAR 00F3
ENCODING 243
SWIDTH 1000 0
DWIDTH 8 0
BBX 6 6 0 0
BITMAP
1C
00
78
CC
CC
78
ENDCHAR
STARTCHAR 00F4
ENCODING 244
SWIDTH 1000 0
DWIDTH 8 0
BBX 6 7 0 -1
BITMAP
78
CC
00
78
CC
CC
78
ENDCHAR
STARTCHAR 00F6
ENCODING 246
SWIDTH 1000 0
DWIDTH 8 0
BBX 6 6 0 0
BITMAP
CC
00
78
CC
CC
78
ENDCHAR
STARTCHAR 00F7
ENCODING 247
SWIDTH 1000 0
DWIDTH 8 0
BBX 6 7 0 -1
BITMAP
30
30
00
FC
00
30
30
ENDCHAR
STARTCHAR 00F9
ENCODING 249
SWIDTH 1000 0
DWIDTH 8 0
BBX 7 6 0 0
BITMAP
E0
00
CC
CC
CC
7E
ENDCHAR
STARTCHAR 00FA
ENCODING 250
SWIDTH 1000 0
DWIDTH 8 0
BBX 7 6 0 0
BITMAP
1C
00
CC
CC
CC
7E
ENDCHAR
STARTCHAR 00FB
ENCODING 251
SWIDTH 1000 0
DWIDTH 8 0
BBX 7 7 0 -1
BITMAP
78
CC
00
CC
CC
CC
7E
ENDCHAR
STARTCHAR 00FC
ENCODING 252
SWIDTH 1000 0
DWIDTH 8 0
BBX 7 6 0 0
BITMAP
CC
00
CC
CC
CC
7E
ENDCHAR
STARTCHAR 00FF
ENCODING 255
SWIDTH 1000 0
DWIDTH 8 0
BBX 6 7 0 0
BITMAP
CC
00
CC
CC
7C
0C
F8
ENDCHAR
STARTCHAR 0192
ENCODING 402
SWIDTH 1000 0
DWIDTH 8 0
BBX 8 8 0 -1
BITMAP
0E
1B
18
3C
18
18
D8
70
ENDCHAR
STARTCHAR 0393
ENCODING 915
SWIDTH 1000 0
DWIDTH 8 0
BBX 6 6 0 0
BITMAP
FC
CC
C0
C0
C0
C0
ENDCHAR
STARTCHAR 0398
ENCODING 920
SWIDTH 1000 0
DWIDTH 8 0
BBX 7 7 0 -1
BITMAP
38
6C
C6
FE
C6
6C
38
ENDCHAR
STARTCHAR 03A3
ENCODING 931
SWIDTH 1000 0
DWIDTH 8 0
BBX 6 7 0 -1
BITMAP
FC
CC
60
30
60
CC
FC
ENDCHAR
STARTCHAR 03A6
ENCODING 934
SWIDTH 1000 0
DWIDTH 8 0
BBX 6 8 0 -1
BITMAP
FC
30
78
CC
CC
78
30
FC
ENDCHAR
STARTCHAR 03A9
ENCODING 937
SWIDTH 1000 0
DWIDTH 8 0
BBX 7 7 0 -1
BITMAP
38
6C
C6
C6
6C
6C
EE
ENDCHAR
STARTCHAR 03B1
ENCODING 945
SWIDTH 1000 0
DWIDTH 8 0
BBX 7 5 0 1
BITMAP
76
DC
C8
DC
76
ENDCHAR
STARTCHAR 03B4
ENCODING 948
SWIDTH 1000 0
DWIDTH 8 0
BBX 6 7 0 -1
BITMAP
1C
30
18
7C
CC
CC
78
ENDCHAR
STARTCHAR 03B5
ENCODING 949
SWIDTH 1000 0
DWIDTH 8 0
BBX 5 7 0 -1
BITMAP
38
60
C0
F8
C0
60
38
ENDCHAR
STARTCHAR 03C0
ENCODING 960
SWIDTH 1000 0
DWIDTH 8 0
BBX 7 6 0 0
BITMAP
FE
6C
6C
6C
6C
6C
ENDCHAR
STARTCHAR 03C3
ENCODING 963
SWIDTH 1000 0
DWIDTH 8 0
BBX 7 5 0 1
BITMAP
7E
D8
D8
D8
70
ENDCHAR
STARTCHAR 03C4
ENCODING 964
SWIDTH 1000 0
DWIDTH 8 0
BBX 7 6 0 0
BITMAP
76
DC
18
18
18
18
ENDCHAR
STARTCHAR 03C6
ENCODING 966
SWIDTH 1000 0
DWIDTH 8 0
BBX 8 8 0 -1
BITMAP
06
0C
7E
DB
DB
7E
60
C0
ENDCHAR
STARTCHAR 2022
ENCODING 8226
SWIDTH 1000 0
DWIDTH 8 0
BBX 4 4 2 1
BITMAP
60
F0
F0
60
ENDCHAR
STARTCHAR 203C
ENCODING 8252
SWIDTH 1000 0
DWIDTH 8 0
BBX 6 7 1 -1
BITMAP
CC
CC
CC
CC
CC
00
CC
ENDCHAR
STARTCHAR 207F
ENCODING 8319
SWIDTH 1000 0
DWIDTH 8 0
BBX 5 5 1 -1
BITMAP
F0
D8
D8
D8
D8
ENDCHAR
STARTCHAR 20A7
ENCODING 8359
SWIDTH 1000 0
DWIDTH 8 0
BBX 8 8 0 -1
BITMAP
F8
CC
CC
FA
C6
CF
C6
C7
ENDCHAR
STARTCHAR 2190
ENCODING 8592
SWIDTH 1000 0
DWIDTH 8 0
BBX 7 5 0 0
BITMAP
30
60
FE
60
30
ENDCHAR
STARTCHAR 2191
ENCODING 8593
SWIDTH 1000 0
DWIDTH 8 0
BBX 6 7 1 -1
BITMAP
30
78
FC
30
30
30
30
ENDCHAR
STARTCHAR 2192
ENCODING 8594
SWIDTH 1000 0
DWIDTH 8 0
BBX 7 5 0 0
BITMAP
18
0C
FE
0C
18
ENDCHAR
STARTCHAR 2193
ENCODING 8595
SWIDTH 1000 0
DWIDTH 8 0
BBX 6 7 1 -1
BITMAP
30
30
30
30
FC
78
30
ENDCHAR
STARTCHAR 2194
ENCODING 8596
SWIDTH 1000 0
DWIDTH 8 0
BBX 8 5 0 0
BITMAP
24
66
FF
66
24
ENDCHAR
STARTCHAR 2195
ENCODING 8597
SWIDTH 1000 0
DWIDTH 8 0
BBX 6 8 1 -1
BITMAP
30
78
FC
30
30
FC
78
30
ENDCHAR
STARTCHAR 21A8
ENCODING 8616
SWIDTH 1000 0
DWIDTH 8 0
BBX 8 8 0 -1
BITMAP
18
3C
7E
18
7E
3C
18
FF
ENDCHAR
STARTCHAR 2219
ENCODING 8729
SWIDTH 1000 0
DWIDTH 8 0
BBX 2 2 3 2
BITMAP
C0
C0
ENDCHAR
STARTCHAR 221A
ENCODING 8730
SWIDTH 1000 0
DWIDTH 8 0
BBX 8 8 0 -1
BITMAP
0F
0C
0C
0C
EC
6C
3C
1C
ENDCHAR
STARTCHAR 221E
ENCODING 8734
SWIDTH 1000 0
DWIDTH 8 0
BBX 8 4 0 1
BITMAP
7E
DB
DB
7E
ENDCHAR
STARTCHAR 221F
ENCODING 8735
SWIDTH 1000 0
DWIDTH 8 0
BBX 7 4 0 1
BITMAP
C0
C0
C0
FE
ENDCHAR
STARTCHAR 2229
ENCODING 8745
SWIDTH 1000 0
DWIDTH 8 0
BBX 6 7 0 -1
BITMAP
78
CC
CC
CC
CC
CC
CC
ENDCHAR
STARTCHAR 2248
ENCODING 8776
SWIDTH 1000 0
DWIDTH 8 0
BBX 7 5 0 0
BITMAP
76
DC
00
76
DC
ENDCHAR
STARTCHAR 2261
ENCODING 8801
SWIDTH 1000 0
DWIDTH 8 0
BBX 6 5 0 0
BITMAP
FC
00
FC
00
FC
ENDCHAR
STARTCHAR 2264
ENCODING 8804
SWIDTH 1000 0
DWIDTH 8 0
BBX 6 7 0 -1
BITMAP
18
30
60
30
18
00
FC
ENDCHAR
STARTCHAR 2265
ENCODING 8805
SWIDTH 1000 0
DWIDTH 8 0
BBX 6 7 0 -1
BITMAP
60
30
18
30
60
00
FC
ENDCHAR
STARTCHAR 2302
ENCODING 8962
SWIDTH 1000 0
DWIDTH 8 0
BBX 7 6 0 0
BITMAP
10
38
6C
C6
C6
FE
ENDCHAR
STARTCHAR 2310
ENCODING 8976
SWIDTH 1000 0
DWIDTH 8 0
BBX 6 3 0 2
BITMAP
FC
C0
C0
ENDCHAR
STARTCHAR 2320
ENCODING 8992
SWIDTH 1000 0
DWIDTH 8 0
BBX 5 8 3 -1
BITMAP
70
D8
D8
C0
C0
C0
C0
C0
ENDCHAR
STARTCHAR 2321
ENCODING 8993
SWIDTH 1000 0
DWIDTH 8 0
BBX 5 8 0 -1
BITMAP
18
18
18
18
18
D8
D8
70
ENDCHAR
STARTCHAR 2500
ENCODING 9472
SWIDTH 1000 0
DWIDTH 8 0
BBX 8 1 0 3
BITMAP
FF
ENDCHAR
STARTCHAR 2502
ENCODING 9474
SWIDTH 1000 0
DWIDTH 8 0
BBX 2 8 3 -1
BITMAP
C0
C0
C0
C0
C0
C0
C0
C0
ENDCHAR
STARTCHAR 250C
ENCODING 9484
SWIDTH 1000 0
DWIDTH 8 0
BBX 5 4 3 3
BITMAP
F8
C0
C0
C0
ENDCHAR
STARTCHAR 2510
ENCODING 9488
SWIDTH 1000 0
DWIDTH 8 0
BBX 5 4 0 3
BITMAP
F8
18
18
18
ENDCHAR
STARTCHAR 2514
ENCODING 9492
SWIDTH 1000 0
DWIDTH 8 0
BBX 5 5 3 -1
BITMAP
C0
C0
C0
C0
F8
ENDCHAR
STARTCHAR 2518
ENCODING 9496
SWIDTH 1000 0
DWIDTH 8 0
BBX 5 5 0 -1
BITMAP
18
18
18
18
F8
ENDCHAR
STARTCHAR 251C
ENCODING 9500
SWIDTH 1000 0
DWIDTH 8 0
BBX 5 8 3 -1
BITMAP
C0
C0
C0
C0
F8
C0
C0
C0
ENDCHAR
STARTCHAR 2524
ENCODING 9508
SWIDTH 1000 0
DWIDTH 8 0
BBX 5 8 0 -1
BITMAP
18
18
18
18
F8
18
18
18
ENDCHAR
STARTCHAR 252C
ENCODING 9516
SWIDTH 1000 0
DWIDTH 8 0
BBX 8 4 0 3
BITMAP
FF
18
18
18
ENDCHAR
STARTCHAR 2534
ENCODING 9524
SWIDTH 1000 0
DWIDTH 8 0
BBX 8 5 0 -1
BITMAP
18
18
18
18
FF
ENDCHAR
STARTCHAR 253C
ENCODING 9532
SWIDTH 1000 0
DWIDTH 8 0
BBX 8 8 0 -1
BITMAP
18
18
18
18
FF
18
18
18
ENDCHAR
STARTCHAR 2550
ENCODING 9552
SWIDTH 1000 0
DWIDTH 8 0
BBX 8 3 0 1
BITMAP
FF
00
FF
ENDCHAR
STARTCHAR 2551
ENCODING 9553
SWIDTH 1000 0
DWIDTH 8 0
BBX 5 8 2 -1
BITMAP
D8
D8
D8
D8
D8
D8
D8
D8
ENDCHAR
STARTCHAR 2552
ENCODING 9554
SWIDTH 1000 0
DWIDTH 8 0
BBX 5 6 3 1
BITMAP
F8
C0
F8
C0
C0
C0
ENDCHAR
STARTCHAR 2553
ENCODING 9555
SWIDTH 1000 0
DWIDTH 8 0
BBX 6 4 2 3
BITMAP
FC
D8
D8
D8
ENDCHAR
STARTCHAR 2554
ENCODING 9556
SWIDTH 1000 0
DWIDTH 8 0
BBX 6 6 2 1
BITMAP
FC
C0
DC
D8
D8
D8
ENDCHAR
STARTCHAR 2555
ENCODING 9557
SWIDTH 1000 0
DWIDTH 8 0
BBX 5 6 0 1
BITMAP
F8
18
F8
18
18
18
ENDCHAR
STARTCHAR 2556
ENCODING 9558
SWIDTH 1000 0
DWIDTH 8 0
BBX 7 4 0 3
BITMAP
FE
36
36
36
ENDCHAR
STARTCHAR 2557
ENCODING 9559
SWIDTH 1000 0
DWIDTH 8 0
BBX 7 6 0 1
BITMAP
FE
06
F6
36
36
36
ENDCHAR
STARTCHAR 2558
ENCODING 9560
SWIDTH 1000 0
DWIDTH 8 0
BBX 5 5 3 -1
BITMAP
C0
C0
F8
C0
F8
ENDCHAR
STARTCHAR 2559
ENCODING 9561
SWIDTH 1000 0
DWIDTH 8 0
BBX 6 5 2 -1
BITMAP
D8
D8
D8
D8
FC
ENDCHAR
STARTCHAR 255A
ENCODING 9562
SWIDTH 1000 0
DWIDTH 8 0
BBX 6 5 2 -1
BITMAP
D8
D8
DC
C0
FC
ENDCHAR
STARTCHAR 255B
ENCODING 9563
SWIDTH 1000 0
DWIDTH 8 0
BBX 5 5 0 -1
BITMAP
18
18
F8
18
F8
ENDCHAR
STARTCHAR 255C
ENCODING 9564
SWIDTH 1000 0
DWIDTH 8 0
BBX 7 5 0 -1
BITMAP
36
36
36
36
FE
ENDCHAR
STARTCHAR 255D
ENCODING 9565
SWIDTH 1000 0
DWIDTH 8 0
BBX 7 5 0 -1
BITMAP
36
36
F6
06
FE
ENDCHAR
STARTCHAR 255E
ENCODING 9566
SWIDTH 1000 0
DWIDTH 8 0
BBX 5 8 3 -1
BITMAP
C0
C0
F8
C0
F8
C0
C0
C0
ENDCHAR
STARTCHAR 255F
ENCODING 9567
SWIDTH 1000 0
DWIDTH 8 0
BBX 6 8 2 -1
BITMAP
D8
D8
D8
D8
DC
D8
D8
D8
ENDCHAR
STARTCHAR 2560
ENCODING 9568
SWIDTH 1000 0
DWIDTH 8 0
BBX 6 8 2 -1
BITMAP
D8
D8
DC
C0
DC
D8
D8
D8
ENDCHAR
STARTCHAR 2561
ENCODING 9569
SWIDTH 1000 0
DWIDTH 8 0
BBX 5 8 0 -1
BITMAP
18
18
F8
18
F8
18
18
18
ENDCHAR
STARTCHAR 2562
ENCODING 9570
SWIDTH 1000 0
DWIDTH 8 0
BBX 7 8 0 -1
BITMAP
36
36
36
36
F6
36
36
36
ENDCHAR
STARTCHAR 2563
ENCODING 9571
SWIDTH 1000 0
DWIDTH 8 0
BBX 7 8 0 -1
BITMAP
36
36
F6
06
F6
36
36
36
ENDCHAR
STARTCHAR 2564
ENCODING 9572
SWIDTH 1000 0
DWIDTH 8 0
BBX 8 6 0 1
BITMAP
FF
00
FF
18
18
18
ENDCHAR
STARTCHAR 2565
ENCODING 9573
SWIDTH 1000 0
DWIDTH 8 0
BBX 8 4 0 3
BITMAP
FF
36
36
36
ENDCHAR
STARTCHAR 2566
ENCODING 9574
SWIDTH 1000 0
DWIDTH 8 0
BBX 8 6 0 1
BITMAP
FF
00
F7
36
36
36
ENDCHAR
STARTCHAR 2567
ENCODING 9575
SWIDTH 1000 0
DWIDTH 8 0
BBX 8 5 0 -1
BITMAP
18
18
FF
00
FF
ENDCHAR
STARTCHAR 2568
ENCODING 9576
SWIDTH 1000 0
DWIDTH 8 0
BBX 8 5 0 -1
BITMAP
36
36
36
36
FF
ENDCHAR
STARTCHAR 2569
ENCODING 9577
SWIDTH 1000 0
DWIDTH 8 0
BBX 8 5 0 -1
BITMAP
36
36
F7
00
FF
ENDCHAR
STARTCHAR 256A
ENCODING 9578
SWIDTH 1000 0
DWIDTH 8 0
BBX 8 8 0 -1
BITMAP
18
18
FF
18
FF
18
18
18
ENDCHAR
STARTCHAR 256B
ENCODING 9579
SWIDTH 1000 0
DWIDTH 8 0
BBX 8 8 0 -1
BITMAP
36
36
36
36
FF
36
36
36
ENDCHAR
STARTCHAR 256C
ENCODING 9580
SWIDTH 1000 0
DWIDTH 8 0
BBX 8 8 0 -1
BITMAP
36
36
F7
00
F7
36
36
36
ENDCHAR
STARTCHAR 2580
ENCODING 9600
SWIDTH 1000 0
DWIDTH 8 0
BBX 8 4 0 -1
BITMAP
FF
FF
FF
FF
ENDCHAR
STARTCHAR 2584
ENCODING 9604
SWIDTH 1000 0
DWIDTH 8 0
BBX 8 4 0 3
BITMAP
FF
FF
FF
FF
ENDCHAR
STARTCHAR 2588
ENCODING 9608
SWIDTH 1000 0
DWIDTH 8 0
BBX 8 8 0 -1
BITMAP
FF
FF
FF
FF
FF
FF
FF
FF
ENDCHAR
STARTCHAR 258C
ENCODING 9612
SWIDTH 1000 0
DWIDTH 8 0
BBX 4 8 0 -1
BITMAP
F0
F0
F0
F0
F0
F0
F0
F0
ENDCHAR
STARTCHAR 2590
ENCODING 9616
SWIDTH 1000 0
DWIDTH 8 0
BBX 4 8 4 -1
BITMAP
F0
F0
F0
F0
F0
F0
F0
F0
ENDCHAR
STARTCHAR 2591
ENCODING 9617
SWIDTH 1000 0
DWIDTH 8 0
BBX 7 8 0 -1
BITMAP
22
88
22
88
22
88
22
88
ENDCHAR
STARTCHAR 2592
ENCODING 9618
SWIDTH 1000 0
DWIDTH 8 0
BBX 8 8 0 -1
BITMAP
55
AA
55
AA
55
AA
55
AA
ENDCHAR
STARTCHAR 2593
ENCODING 9619
SWIDTH 1000 0
DWIDTH 8 0
BBX 8 8 0 -1
BITMAP
DB
77
DB
EE
DB
77
DB
EE
ENDCHAR
STARTCHAR 25A0
ENCODING 9632
SWIDTH 1000 0
DWIDTH 8 0
BBX 4 4 2 1
BITMAP
F0
F0
F0
F0
ENDCHAR
STARTCHAR 25AC
ENCODING 9644
SWIDTH 1000 0
DWIDTH 8 0
BBX 6 3 1 3
BITMAP
FC
FC
FC
ENDCHAR
STARTCHAR 25B2
ENCODING 9650
SWIDTH 1000 0
DWIDTH 8 0
BBX 8 5 0 0
BITMAP
18
3C
7E
FF
FF
ENDCHAR
STARTCHAR 25BA
ENCODING 9658
SWIDTH 1000 0
DWIDTH 8 0
BBX 7 7 0 -1
BITMAP
80
E0
F8
FE
F8
E0
80
ENDCHAR
STARTCHAR 25BC
ENCODING 9660
SWIDTH 1000 0
DWIDTH 8 0
BBX 8 5 0 0
BITMAP
FF
FF
7E
3C
18
ENDCHAR
STARTCHAR 25C4
ENCODING 9668
SWIDTH 1000 0
DWIDTH 8 0
BBX 7 7 0 -1
BITMAP
02
0E
3E
FE
3E
0E
02
ENDCHAR
STARTCHAR 25CB
ENCODING 9675
SWIDTH 1000 0
DWIDTH 8 0
BBX 6 6 1 0
BITMAP
78
CC
84
84
CC
78
ENDCHAR
STARTCHAR 25D8
ENCODING 9688
SWIDTH 1000 0
DWIDTH 8 0
BBX 8 8 0 -1
BITMAP
FF
FF
E7
C3
C3
E7
FF
FF
ENDCHAR
STARTCHAR 25D9
ENCODING 9689
SWIDTH 1000 0
DWIDTH 8 0
BBX 8 8 0 -1
BITMAP
FF
C3
99
BD
BD
99
C3
FF
ENDCHAR
STARTCHAR 263A
ENCODING 9786
SWIDTH 1000 0
DWIDTH 8 0
BBX 8 8 0 -1
BITMAP
7E
81
A5
81
BD
99
81
7E
ENDCHAR
STARTCHAR 263B
ENCODING 9787
SWIDTH 1000 0
DWIDTH 8 0
BBX 8 8 0 -1
BITMAP
7E
FF
DB
FF
C3
E7
FF
7E
ENDCHAR
STARTCHAR 263C
ENCODING 9788
SWIDTH 1000 0
DWIDTH 8 0
BBX 8 8 0 -1
BITMAP
99
5A
3C
E7
E7
3C
5A
99
ENDCHAR
STARTCHAR 2640
ENCODING 9792
SWIDTH 1000 0
DWIDTH 8 0
BBX 6 8 1 -1
BITMAP
78
CC
CC
CC
78
30
FC
30
ENDCHAR
STARTCHAR 2642
ENCODING 9794
SWIDTH 1000 0
DWIDTH 8 0
BBX 8 8 0 -1
BITMAP
0F
07
0F
7D
CC
CC
CC
78
ENDCHAR
STARTCHAR 2660
ENCODING 9824
SWIDTH 1000 0
DWIDTH 8 0
BBX 7 8 0 -1
BITMAP
10
10
38
7C
FE
7C
38
7C
ENDCHAR
STARTCHAR 2663
ENCODING 9827
SWIDTH 1000 0
DWIDTH 8 0
BBX 7 8 0 -1
BITMAP
38
7C
38
FE
FE
7C
38
7C
ENDCHAR
STARTCHAR 2665
ENCODING 9829
SWIDTH 1000 0
DWIDTH 8 0
BBX 7 7 0 -1
BITMAP
6C
FE
FE
FE
7C
38
10
ENDCHAR
STARTCHAR 2666
ENCODING 9830
SWIDTH 1000 0
DWIDTH 8 0
BBX 7 7 0 -1
BITMAP
10
38
7C
FE
7C
38
10
ENDCHAR
STARTCHAR 266A
ENCODING 9834
SWIDTH 1000 0
DWIDTH 8 0
BBX 8 8 0 -1
BITMAP
3F
33
3F
30
30
70
F0
E0
ENDCHAR
STARTCHAR 266B
ENCODING 9835
SWIDTH 1000 0
DWIDTH 8 0
BBX 8 8 0 -1
BITMAP
7F
63
7F
63
63
67
E6
C0
ENDCHAR
STARTCHAR 3044
ENCODING 12356
SWIDTH 1000 0
DWIDTH 8 0
BBX 0 0 0 -1
BITMAP
ENDCHAR
STARTCHAR 3046
ENCODING 12358
SWIDTH 1000 0
DWIDTH 8 0
BBX 0 0 0 -1
BITMAP
ENDCHAR
STARTCHAR 304B
ENCODING 12363
SWIDTH 1000 0
DWIDTH 8 0
BBX 0 0 0 -1
BITMAP
ENDCHAR
STARTCHAR 3057
ENCODING 12375
SWIDTH 1000 0
DWIDTH 8 0
BBX 0 0 0 -1
BITMAP
ENDCHAR
STARTCHAR 306E
ENCODING 12398
SWIDTH 1000 0
DWIDTH 8 0
BBX 0 0 0 -1
BITMAP
ENDCHAR
STARTCHAR 3093
ENCODING 12435
SWIDTH 1000 0
DWIDTH 8 0
BBX 0 0 0 -1
BITMAP
ENDCHAR
ENDFONT
